<?xml version="1.0" standalone="no"?>
<!DOCTYPE svg PUBLIC "-//W3C//DTD SVG 20010904//EN"
 "http://www.w3.org/TR/2001/REC-SVG-20010904/DTD/svg10.dtd">
<svg version="1.0" xmlns="http://www.w3.org/2000/svg"
 width="829.000000pt" height="829.000000pt" viewBox="0 0 829.000000 829.000000"
 preserveAspectRatio="xMidYMid meet">
<metadata>
Created by potrace 1.14, written by Peter Selinger 2001-2017
</metadata>
<g transform="translate(0.000000,829.000000) scale(0.100000,-0.100000)"
fill="#000000" stroke="none">
<path d="M275 7520 c-11 -5 -14 -9 -7 -9 10 -1 10 -5 -2 -17 -18 -18 -21 -28
-5 -18 8 4 8 0 0 -15 -7 -12 -9 -26 -6 -31 3 -6 2 -10 -4 -10 -5 0 -8 -9 -6
-20 2 -11 0 -20 -4 -20 -4 0 -7 -13 -6 -30 1 -16 -1 -30 -5 -30 -3 0 -7 -11
-8 -25 -4 -53 -5 -60 -16 -67 -8 -5 -8 -8 0 -8 6 0 9 -13 6 -30 -2 -16 -7 -28
-11 -25 -4 2 -8 -2 -8 -10 0 -8 5 -11 11 -8 6 4 5 -1 -3 -10 -10 -13 -10 -17
-1 -17 8 0 9 -4 3 -12 -5 -7 -11 -31 -12 -53 -2 -22 -7 -48 -12 -57 -7 -12 -6
-18 1 -18 8 0 8 -6 0 -20 -8 -15 -8 -20 1 -20 7 0 4 -9 -7 -22 -10 -12 -13
-18 -6 -14 10 6 11 1 6 -21 -4 -15 -8 -30 -10 -32 -1 -1 1 -14 6 -27 6 -15 6
-24 0 -24 -5 0 -7 -7 -4 -15 4 -8 1 -22 -6 -30 -10 -12 -10 -15 0 -15 10 0 10
-3 0 -15 -10 -12 -10 -15 0 -15 9 0 10 -3 1 -13 -8 -10 -7 -17 1 -25 9 -9 9
-12 -1 -12 -11 0 -11 -3 -1 -15 10 -12 10 -15 0 -15 -10 0 -10 -3 0 -15 10
-12 10 -15 0 -15 -10 0 -10 -3 0 -15 10 -12 10 -15 0 -15 -9 0 -9 -4 1 -17 14
-17 14 -20 -3 -40 -7 -9 -7 -13 2 -13 10 0 10 -3 0 -15 -10 -12 -10 -15 0 -15
9 0 10 -3 1 -13 -8 -10 -7 -17 1 -25 9 -9 9 -12 -1 -12 -11 0 -11 -3 -1 -15 7
-8 8 -15 3 -15 -9 0 -9 -35 1 -62 14 -40 15 -48 6 -48 -5 0 -5 -13 0 -30 5
-18 5 -30 0 -30 -6 0 -6 -10 -2 -22 5 -13 8 -30 7 -38 0 -8 3 -18 8 -21 6 -4
6 -13 1 -20 -12 -19 -14 -39 -4 -39 5 0 7 -8 5 -17 -1 -10 2 -28 6 -40 6 -16
5 -23 -4 -23 -8 0 -7 -4 3 -10 8 -5 10 -10 3 -10 -6 0 -9 -9 -6 -20 3 -11 10
-20 15 -20 6 0 5 -7 -2 -15 -10 -12 -10 -15 0 -15 10 0 10 -3 0 -15 -7 -9 -8
-15 -2 -15 5 0 12 -13 14 -30 3 -16 1 -30 -3 -30 -5 0 -6 -7 -3 -15 4 -8 9
-13 13 -10 10 5 7 -26 -3 -43 -4 -7 -2 -12 5 -12 7 0 10 -11 7 -30 -3 -17 1
-31 8 -34 6 -2 10 -16 9 -30 -2 -15 2 -26 8 -26 7 0 5 -5 -3 -10 -8 -5 -10
-10 -3 -10 6 0 9 -9 6 -20 -3 -13 0 -20 8 -20 11 0 11 -2 -1 -10 -12 -8 -12
-10 -1 -10 8 0 11 -3 8 -7 -4 -3 -2 -12 4 -20 9 -10 8 -13 -2 -13 -11 -1 -11
-3 1 -13 8 -7 15 -20 16 -29 2 -56 5 -69 12 -65 4 3 8 -5 8 -16 3 -44 9 -77
14 -77 3 0 7 -14 8 -32 2 -18 6 -35 10 -38 7 -5 12 -27 15 -62 1 -10 5 -18 9
-18 4 0 7 -3 7 -7 -1 -5 0 -10 1 -13 1 -3 3 -13 5 -22 2 -9 10 -31 18 -48 10
-19 11 -28 4 -24 -8 5 -8 3 1 -7 6 -7 12 -21 12 -31 0 -10 5 -18 10 -18 6 0 9
-3 9 -7 -4 -22 2 -44 9 -39 5 3 9 -9 10 -26 0 -17 6 -34 13 -38 6 -4 8 -13 5
-19 -4 -6 -2 -11 4 -11 6 0 8 -4 5 -10 -3 -5 -1 -10 4 -10 6 0 11 -9 11 -20 0
-11 4 -20 8 -20 5 0 9 -7 10 -15 1 -8 3 -22 4 -30 1 -8 8 -15 17 -15 14 0 14
-2 1 -10 -11 -7 -11 -10 -2 -10 7 0 10 -4 7 -10 -3 -5 -1 -10 4 -10 6 0 11 -9
11 -19 0 -11 4 -21 9 -23 5 -1 11 -12 13 -23 1 -11 12 -28 23 -37 15 -13 17
-17 5 -18 -12 0 -11 -3 3 -11 9 -6 15 -14 12 -20 -4 -5 -1 -9 5 -9 6 0 8 -4 5
-10 -3 -5 -1 -10 5 -10 6 0 8 -4 5 -10 -3 -5 -1 -10 4 -10 6 0 11 -9 11 -19 0
-11 4 -21 9 -23 5 -1 11 -10 13 -18 2 -8 9 -21 16 -28 7 -8 9 -18 6 -24 -4 -7
-2 -8 4 -4 7 4 12 2 12 -4 0 -6 7 -18 15 -27 8 -8 13 -19 10 -24 -4 -5 -1 -9
5 -9 6 0 9 -4 6 -9 -3 -5 1 -11 9 -15 8 -3 15 -12 15 -21 0 -8 5 -15 11 -15 5
0 7 -4 4 -10 -3 -5 -1 -10 5 -10 6 0 9 -4 6 -8 -3 -5 4 -15 15 -22 10 -8 19
-22 19 -31 0 -9 7 -20 16 -23 9 -4 14 -13 10 -22 -3 -8 -2 -12 4 -9 6 3 10 -1
10 -9 0 -8 9 -17 20 -21 11 -3 19 -9 19 -13 -3 -19 2 -45 7 -39 8 8 33 -16 27
-26 -3 -5 4 -15 16 -23 12 -9 19 -20 16 -25 -4 -5 -2 -9 4 -9 5 0 24 -21 42
-47 18 -27 40 -57 51 -68 10 -11 26 -29 34 -40 9 -11 12 -13 8 -5 -4 9 1 7 13
-5 12 -11 21 -22 21 -25 0 -22 4 -30 16 -30 8 0 18 -9 21 -20 3 -11 12 -20 18
-20 7 0 20 -14 29 -30 9 -17 24 -30 33 -30 13 0 19 -12 16 -32 0 -5 6 -8 15
-8 8 0 12 -4 9 -10 -3 -5 1 -10 9 -10 9 0 16 -7 16 -16 0 -8 5 -12 10 -9 6 3
10 0 10 -8 0 -15 27 -32 43 -28 5 1 6 -3 2 -9 -3 -5 -1 -10 5 -10 6 0 8 -4 5
-10 -3 -6 1 -7 9 -4 11 4 16 0 16 -10 0 -9 6 -16 14 -16 8 0 17 -8 20 -18 3
-9 25 -30 48 -45 23 -15 39 -27 35 -27 -3 0 4 -10 16 -23 12 -13 28 -21 36
-18 8 2 12 0 9 -5 -6 -11 28 -45 36 -37 3 4 6 -1 6 -10 0 -9 6 -16 13 -14 6 1
11 -4 10 -10 -2 -7 1 -12 6 -10 11 3 48 -21 70 -45 8 -10 21 -18 28 -18 7 0
13 -7 13 -15 0 -9 6 -12 17 -8 11 4 14 3 9 -5 -5 -8 1 -12 16 -12 18 0 20 -2
8 -10 -12 -8 -11 -10 5 -10 11 0 27 -9 35 -19 7 -11 17 -18 22 -15 4 3 8 0 8
-6 0 -7 7 -9 16 -6 8 3 12 2 9 -4 -3 -6 -2 -10 3 -10 4 0 17 -8 28 -17 10 -10
31 -24 46 -32 15 -8 25 -18 22 -23 -3 -5 -2 -7 3 -6 14 4 53 -13 53 -23 0 -6
4 -8 8 -5 5 3 14 -4 22 -14 8 -10 17 -17 22 -14 4 3 8 0 8 -6 0 -6 4 -8 10 -5
5 3 15 -3 22 -15 7 -11 21 -20 31 -20 10 0 16 -4 12 -9 -3 -6 4 -8 15 -6 11 2
18 0 15 -6 -4 -5 1 -9 10 -9 9 0 13 -4 10 -10 -3 -6 1 -7 9 -4 9 3 16 1 16 -5
0 -6 7 -11 15 -11 8 0 15 -4 15 -10 0 -5 9 -10 20 -10 11 0 20 -4 20 -10 0 -5
7 -10 16 -10 9 0 24 -8 33 -18 9 -10 35 -24 59 -32 23 -7 42 -17 42 -22 0 -4
9 -8 20 -8 11 0 23 -7 27 -16 5 -13 7 -13 14 -2 7 10 9 10 9 -3 0 -9 6 -16 13
-16 25 -1 42 -9 59 -26 9 -10 19 -18 23 -17 13 4 65 -23 65 -34 0 -6 5 -4 10
4 6 10 10 11 10 3 0 -7 9 -13 20 -13 11 0 20 -4 20 -10 0 -5 9 -10 20 -10 11
0 20 -4 20 -10 0 -5 9 -10 20 -10 11 0 20 -4 20 -10 0 -5 5 -10 11 -10 5 0 7
5 4 11 -4 6 2 5 14 -3 12 -7 21 -16 21 -20 0 -5 11 -8 25 -8 14 0 25 -4 25
-10 0 -5 9 -10 21 -10 11 0 17 -4 14 -10 -3 -6 1 -7 9 -4 9 3 16 1 16 -4 0 -6
9 -9 20 -7 11 2 20 0 20 -6 0 -5 9 -9 19 -9 11 0 22 -6 24 -12 4 -10 6 -10 6
0 1 9 8 6 22 -7 12 -11 27 -17 34 -15 7 3 16 0 20 -5 3 -6 11 -9 16 -6 5 4 12
0 15 -8 3 -9 13 -13 25 -10 10 3 19 1 19 -4 0 -5 6 -10 13 -10 23 -1 41 -8 56
-21 11 -11 15 -11 22 0 7 11 9 11 9 0 0 -7 5 -10 10 -7 6 3 10 1 10 -4 0 -6 9
-11 21 -11 13 0 18 -4 13 -12 -5 -9 -2 -9 9 1 10 8 17 9 17 3 0 -6 9 -9 20 -7
11 2 19 1 19 -3 -3 -19 2 -23 16 -12 8 7 15 8 15 4 0 -5 9 -15 21 -22 12 -8
18 -9 14 -3 -3 6 -1 11 4 11 6 0 11 -4 11 -8 0 -5 6 -9 13 -10 25 -1 59 -11
88 -26 19 -9 27 -10 22 -3 -5 9 -3 9 8 1 8 -6 28 -15 44 -19 17 -5 36 -10 43
-12 23 -6 47 -11 55 -12 5 -1 6 -5 3 -9 -3 -5 1 -9 9 -9 8 0 15 5 15 10 0 5 7
4 15 -3 8 -7 15 -9 15 -4 0 5 5 2 10 -7 6 -11 18 -15 35 -11 17 3 25 0 25 -9
0 -11 2 -11 10 1 6 10 10 11 10 3 0 -8 13 -13 30 -13 17 0 30 -5 30 -12 0 -9
4 -8 10 2 6 10 10 11 10 3 0 -8 13 -13 30 -13 17 0 30 -5 30 -12 0 -9 4 -8 10
2 6 10 10 11 10 3 0 -7 12 -13 26 -13 16 0 23 -4 18 -12 -5 -7 -3 -8 7 -3 18
12 49 14 49 3 0 -13 17 -9 33 6 10 10 18 11 24 5 7 -7 16 -5 27 6 10 10 16 12
16 4 0 -8 3 -9 13 0 8 6 17 8 20 4 4 -3 7 -1 7 6 0 7 5 9 11 5 6 -3 15 0 20 7
7 11 9 11 9 1 0 -9 5 -10 19 -2 11 5 31 11 45 12 15 1 26 6 26 11 0 5 7 7 15
3 8 -3 15 -1 15 3 0 5 12 8 26 6 14 -1 28 3 31 11 2 7 11 10 19 7 8 -3 14 1
14 8 0 11 3 11 11 -1 8 -11 12 -12 16 -2 2 6 15 12 27 12 12 0 27 5 34 12 7 7
12 8 12 4 0 -5 7 -3 15 4 8 7 15 9 15 5 0 -4 8 -1 17 6 15 12 16 12 8 -1 -8
-13 -7 -13 8 -1 9 7 17 10 17 5 0 -5 5 -1 11 10 9 15 13 16 20 5 8 -12 11 -11
22 2 6 9 18 14 25 12 6 -3 12 1 12 7 0 9 5 9 17 -1 11 -10 14 -10 9 -2 -4 7
-3 13 2 13 5 0 27 8 48 17 22 9 50 18 63 20 13 2 30 11 38 19 17 16 37 19 28
3 -4 -6 2 -5 14 3 12 7 21 17 21 23 0 5 5 3 10 -5 5 -8 10 -10 10 -4 0 11 46
29 63 26 4 -1 7 2 7 8 0 5 8 10 18 10 10 0 23 5 30 12 9 9 12 9 13 -2 0 -8 5
-4 10 10 8 20 12 22 19 10 5 -8 10 -10 10 -5 0 11 60 40 91 44 5 0 7 6 3 13
-5 7 -3 8 6 3 7 -4 16 -2 21 6 6 10 9 11 9 2 0 -7 5 -13 11 -13 5 0 7 5 3 12
-5 7 -2 9 9 5 11 -4 14 -2 10 9 -4 10 0 12 11 8 9 -3 16 -1 16 6 0 6 4 9 9 5
5 -3 12 -1 16 4 3 6 13 7 22 4 10 -4 14 -2 10 4 -6 10 28 25 46 20 5 -1 13 6
18 16 6 9 14 15 20 12 5 -4 9 -1 9 4 0 6 7 11 15 11 8 0 15 5 15 11 0 5 5 7
10 4 6 -3 10 -1 10 5 0 7 7 9 16 6 10 -4 13 -2 8 6 -5 7 -2 9 9 5 9 -3 18 0
21 9 3 8 12 14 21 14 8 0 15 5 15 11 0 5 5 7 10 4 6 -3 10 -1 10 5 0 7 7 10
15 6 8 -3 15 -1 15 5 0 5 18 18 40 28 22 10 37 21 33 24 -3 4 -1 8 5 8 7 1 17
2 22 3 6 0 15 8 20 16 5 8 10 11 10 7 0 -5 7 -1 16 8 9 9 23 14 31 11 8 -4 11
-1 8 5 -4 6 2 13 14 16 12 3 21 10 21 15 0 5 5 6 12 2 8 -5 9 -1 4 12 -6 15
-5 16 5 7 10 -10 17 -7 35 13 13 13 25 24 26 25 21 0 46 14 41 22 -4 6 0 8 10
4 11 -4 18 1 22 14 4 10 10 17 15 14 5 -3 13 3 19 12 5 10 12 17 15 16 12 -6
26 -3 25 5 -3 19 2 25 11 12 8 -13 10 -12 10 3 0 9 3 16 8 15 4 -2 21 9 37 25
27 24 40 31 48 25 1 -2 21 15 43 37 54 52 71 65 77 59 3 -3 8 4 12 15 3 12 11
19 16 16 5 -4 9 -1 9 5 0 7 7 9 16 6 15 -6 15 -4 3 11 -9 11 -10 14 -1 9 7 -4
15 -1 18 9 4 9 13 14 21 11 8 -3 11 -2 8 3 -3 6 15 25 40 45 25 19 46 37 46
40 -1 3 2 6 5 5 3 0 15 13 27 28 12 15 25 30 29 31 5 2 5 9 2 14 -4 7 -2 8 4
4 7 -4 22 4 35 18 13 14 28 22 32 18 5 -4 5 1 2 11 -4 10 -3 16 2 13 5 -3 14
1 21 9 7 8 17 12 23 8 5 -3 7 -1 4 4 -4 6 0 16 8 23 8 7 12 16 9 21 -3 5 0 8
8 7 7 -2 12 5 12 14 -1 10 2 16 6 13 5 -3 10 -2 12 3 1 4 16 17 31 29 15 12
28 25 29 30 0 4 4 7 9 5 5 -1 9 7 9 18 0 12 5 17 14 14 7 -3 16 2 20 11 4 11
2 14 -7 9 -8 -5 -8 -2 2 9 7 9 17 15 21 12 5 -3 11 -1 15 5 3 5 1 10 -5 10 -6
0 -8 5 -5 10 4 6 11 8 16 5 5 -4 9 1 9 9 0 9 5 16 10 16 6 0 15 11 22 25 6 13
16 22 21 18 7 -4 8 1 3 13 -4 10 -4 16 -1 12 11 -10 42 26 37 41 -3 8 -1 12 4
9 8 -5 43 23 36 29 -5 6 15 35 23 34 5 -1 10 6 11 16 2 10 10 23 18 29 9 6 13
14 9 17 -3 4 0 7 8 7 8 0 22 17 31 38 10 21 26 47 35 58 10 11 19 26 21 34 2
8 10 18 17 23 8 4 12 14 9 22 -4 10 0 15 11 15 11 0 15 5 11 16 -4 10 -2 13 6
8 8 -5 9 -2 5 9 -4 10 -2 16 6 14 7 -1 11 4 9 11 -1 7 4 15 12 18 8 3 12 12 9
20 -3 8 0 14 6 14 6 0 11 7 11 15 0 8 4 15 8 15 4 0 14 16 21 35 7 19 16 33
21 30 4 -3 6 5 2 17 -3 13 -1 19 5 15 5 -4 16 11 23 33 7 22 17 37 22 34 5 -3
7 -2 6 3 -4 13 25 82 33 78 4 -3 7 1 6 8 -1 32 4 48 13 42 6 -3 7 1 4 9 -3 9
-2 16 4 16 6 0 13 14 17 30 4 16 11 30 16 30 6 0 8 4 5 8 -3 5 2 21 9 36 8 16
12 32 9 37 -3 5 -1 9 4 9 12 0 33 56 25 64 -4 3 -1 6 5 6 7 0 12 8 12 18 0 10
3 22 7 26 4 3 8 12 9 19 1 7 9 32 18 56 9 24 13 48 9 54 -3 6 -1 7 5 3 8 -5
12 2 12 19 0 14 4 24 9 21 5 -3 8 8 7 24 -1 20 2 30 12 30 12 0 12 3 2 15 -10
12 -10 15 0 15 7 0 10 8 7 20 -3 13 -1 18 6 13 6 -4 8 2 5 15 -4 12 -2 20 3
16 5 -3 9 1 10 8 0 7 3 22 5 33 3 11 6 32 6 47 1 15 6 24 11 21 5 -3 7 0 5 8
-3 8 1 30 8 51 7 20 10 39 7 42 -4 3 -1 6 7 6 10 0 10 3 0 15 -9 10 -9 15 -1
15 6 0 11 13 11 29 0 17 5 33 11 37 8 4 7 9 -2 15 -11 6 -9 9 5 15 14 5 15 9
4 15 -11 7 -11 9 1 9 11 0 11 3 1 15 -10 12 -10 15 0 15 8 0 11 10 8 29 -2 17
-1 28 3 26 4 -3 9 2 13 10 3 8 0 15 -7 15 -8 0 -8 3 2 9 10 7 11 10 1 16 -10
6 -10 10 1 19 8 6 14 23 15 39 3 85 5 98 12 93 5 -3 9 1 9 9 0 8 -5 15 -10 15
-5 0 -4 7 3 15 10 12 10 15 0 15 -10 0 -10 3 0 15 7 8 10 24 7 35 -3 11 0 20
6 20 7 0 5 5 -3 10 -8 5 -10 10 -4 10 6 0 10 18 10 41 -1 22 2 46 6 52 4 6 2
19 -3 29 -5 10 -6 18 -1 18 4 0 8 27 7 60 0 33 4 60 10 60 6 0 3 5 -5 10 -8 5
-10 10 -5 10 11 0 12 86 1 97 -3 4 1 15 11 25 13 14 13 18 2 18 -11 0 -11 2 1
10 12 8 12 10 1 10 -10 0 -11 4 -3 13 13 15 13 29 0 45 -8 8 -7 12 3 12 9 0
10 3 4 8 -11 7 -16 52 -6 52 3 0 6 14 6 30 0 17 -4 30 -9 30 -5 0 -3 7 4 15
10 12 10 15 0 15 -10 0 -10 3 -1 14 9 10 9 16 1 21 -8 5 -8 11 1 21 9 11 9 14
0 14 -7 0 -10 3 -8 8 3 4 1 31 -2 60 -5 34 -4 52 3 52 7 0 8 3 1 8 -5 4 -10
22 -10 40 1 19 -3 36 -8 39 -4 2 -3 11 3 18 6 7 7 16 2 18 -4 3 -9 25 -11 49
-1 24 -6 47 -11 52 -5 5 -5 17 1 28 7 13 6 18 -2 18 -7 0 -10 3 -6 6 3 3 2 17
-3 30 -7 17 -6 24 2 24 6 0 3 9 -7 20 -12 13 -14 20 -5 20 10 0 10 3 0 15 -9
11 -10 15 -1 15 8 0 6 6 -4 16 -13 14 -14 19 -3 25 11 7 11 9 0 9 -7 0 -10 5
-7 10 3 6 0 10 -7 10 -10 0 -10 2 0 9 17 10 14 22 -7 38 -13 10 -13 12 -2 13
12 0 12 3 3 12 -14 14 -16 32 -2 23 6 -3 7 1 4 9 -3 9 -10 16 -16 16 -5 0 -7
8 -4 18 4 12 1 19 -7 19 -14 0 -16 -24 -4 -44 4 -6 1 -14 -5 -16 -10 -4 -10
-6 -1 -6 9 -1 10 -8 4 -24 -5 -13 -5 -30 -1 -37 5 -8 5 -19 0 -25 -12 -15 -17
-145 -5 -145 6 0 3 -5 -5 -10 -8 -5 -11 -10 -7 -10 4 0 3 -9 -3 -20 -8 -14 -8
-20 0 -20 8 0 8 -6 0 -20 -8 -15 -8 -20 1 -20 9 0 9 -3 0 -14 -6 -7 -9 -21 -5
-30 3 -9 2 -16 -3 -16 -5 0 -8 -13 -5 -30 2 -16 0 -30 -5 -30 -5 0 -9 -9 -9
-20 0 -11 4 -20 8 -20 4 0 5 -7 2 -15 -4 -8 -10 -12 -15 -9 -5 3 -9 0 -9 -5 0
-6 5 -11 10 -11 7 0 7 -6 0 -20 -6 -11 -8 -20 -5 -20 3 0 1 -9 -5 -20 -8 -15
-8 -20 1 -20 8 0 8 -4 -1 -15 -7 -8 -10 -22 -6 -30 3 -9 0 -15 -11 -15 -12 0
-13 -3 -4 -14 9 -10 9 -16 1 -21 -8 -5 -7 -11 2 -23 10 -12 10 -14 1 -8 -9 5
-13 -1 -13 -18 0 -14 -6 -26 -12 -26 -10 0 -10 -2 0 -9 11 -7 11 -11 -1 -23
-10 -10 -12 -19 -5 -31 5 -11 5 -17 0 -17 -6 0 -13 -7 -16 -16 -4 -10 -2 -13
7 -8 8 5 8 2 -2 -9 -7 -9 -11 -24 -7 -32 3 -9 2 -13 -4 -10 -9 5 -15 -15 -11
-37 0 -5 -5 -8 -11 -8 -9 0 -8 -4 2 -10 11 -7 11 -10 2 -10 -7 0 -10 -4 -7
-10 3 -5 1 -10 -5 -10 -6 0 -9 -4 -6 -9 4 -5 0 -12 -6 -14 -10 -4 -10 -6 -1
-6 7 -1 10 -8 7 -16 -4 -8 -10 -13 -15 -10 -4 3 -6 -3 -4 -15 2 -11 0 -22 -5
-25 -5 -3 -7 -12 -3 -20 3 -8 0 -15 -6 -15 -6 0 -11 -11 -11 -25 0 -14 -4 -25
-10 -25 -5 0 -10 -8 -10 -18 0 -10 -6 -24 -12 -31 -11 -11 -10 -12 0 -7 7 4 4
-7 -7 -25 -11 -18 -18 -36 -15 -41 3 -4 0 -8 -5 -8 -6 0 -11 -3 -10 -7 2 -15
-14 -53 -22 -53 -5 0 -6 -7 -3 -15 4 -8 1 -15 -5 -15 -6 0 -10 -3 -9 -7 2 -13
-15 -47 -31 -61 -9 -8 -10 -11 -4 -7 9 4 11 1 7 -9 -3 -9 -11 -13 -17 -9 -6 4
-7 1 -2 -7 5 -8 1 -18 -10 -27 -14 -9 -15 -13 -4 -13 12 0 12 -2 -1 -10 -8 -5
-15 -13 -16 -17 -2 -18 -19 -49 -33 -61 -13 -11 -13 -12 -1 -7 9 4 7 0 -4 -9
-10 -8 -15 -19 -12 -24 3 -6 -1 -13 -10 -16 -9 -4 -14 -13 -10 -21 3 -9 0 -15
-10 -15 -8 0 -12 -4 -9 -10 3 -5 1 -10 -5 -10 -6 0 -8 -5 -5 -10 3 -6 -1 -13
-9 -16 -9 -3 -13 -10 -10 -15 3 -5 0 -9 -6 -9 -6 0 -9 -4 -6 -9 3 -5 -1 -11
-9 -15 -8 -3 -15 -12 -15 -21 0 -8 -4 -15 -9 -15 -5 0 -11 -9 -14 -21 -3 -12
-10 -18 -16 -14 -7 3 -8 0 -5 -9 4 -9 -1 -18 -10 -22 -9 -3 -14 -10 -11 -14 3
-5 -5 -16 -17 -24 -12 -9 -18 -16 -13 -16 6 0 -2 -10 -16 -23 -15 -12 -27 -26
-28 -32 -1 -5 -15 -26 -31 -45 -48 -56 -49 -58 -43 -64 4 -3 2 -6 -4 -6 -14 0
-53 -35 -53 -49 0 -6 -4 -11 -10 -11 -5 0 -10 -7 -10 -17 0 -9 -2 -14 -5 -11
-10 9 -66 -53 -59 -64 4 -7 2 -8 -4 -4 -7 4 -12 3 -12 -3 0 -5 -9 -13 -20 -16
-11 -4 -18 -11 -15 -16 4 -5 -4 -13 -17 -18 -13 -6 -19 -10 -15 -10 5 -1 1 -8
-7 -17 -9 -8 -21 -12 -27 -8 -7 4 -9 3 -6 -3 3 -5 -3 -17 -14 -26 -11 -10 -17
-22 -14 -27 3 -5 -3 -7 -14 -5 -15 3 -18 0 -14 -12 4 -11 2 -14 -5 -9 -7 4
-12 2 -12 -4 0 -6 -11 -15 -25 -22 -13 -6 -23 -14 -22 -17 2 -3 -8 -17 -21
-31 -14 -14 -22 -19 -18 -12 4 6 3 12 -3 12 -5 0 -13 -9 -16 -20 -4 -11 -9
-18 -13 -16 -10 6 -32 -21 -24 -28 3 -4 -2 -4 -12 0 -14 5 -17 4 -12 -4 4 -7
1 -12 -6 -12 -8 0 -20 -9 -28 -19 -7 -11 -17 -18 -22 -15 -4 3 -11 -2 -14 -10
-3 -9 -10 -13 -15 -10 -5 3 -9 -2 -9 -11 0 -9 -4 -13 -10 -10 -5 3 -20 -4 -33
-17 -24 -24 -31 -28 -47 -28 -5 0 -9 -3 -9 -7 3 -20 -2 -26 -11 -13 -8 13 -10
12 -10 -2 0 -10 -3 -17 -7 -17 -21 3 -33 -2 -27 -12 4 -7 1 -10 -6 -7 -8 2
-22 -3 -31 -11 -33 -29 -44 -37 -76 -51 -18 -8 -33 -18 -33 -22 0 -5 -7 -8
-15 -8 -9 0 -18 -6 -21 -14 -3 -8 -12 -12 -20 -9 -8 3 -14 0 -14 -6 0 -6 -6
-11 -14 -11 -7 0 -19 -7 -26 -15 -7 -8 -21 -15 -32 -15 -11 0 -16 -5 -13 -11
4 -6 1 -10 -6 -9 -21 3 -59 -11 -59 -22 0 -5 -4 -6 -10 -3 -5 3 -10 1 -10 -4
0 -6 -9 -11 -19 -11 -11 0 -23 -5 -26 -11 -4 -6 -14 -8 -22 -5 -8 3 -11 1 -8
-4 3 -6 2 -10 -4 -10 -5 0 -17 -7 -25 -16 -12 -12 -16 -12 -16 -2 0 8 -3 9 -8
3 -8 -12 -78 -45 -93 -45 -6 0 -17 -7 -26 -15 -8 -8 -19 -13 -24 -10 -5 4 -9
0 -9 -7 0 -9 -3 -9 -10 2 -6 10 -10 11 -10 3 0 -7 -9 -13 -19 -13 -11 0 -23
-4 -26 -10 -3 -5 -15 -10 -26 -10 -11 0 -17 -4 -14 -10 3 -6 -1 -7 -9 -4 -9 3
-16 2 -16 -4 0 -6 -8 -9 -17 -8 -10 2 -20 -1 -23 -5 -3 -5 -20 -9 -37 -11 -17
-1 -29 -6 -27 -10 3 -4 -7 -8 -21 -8 -17 0 -24 -4 -19 -12 4 -6 3 -8 -4 -4 -6
3 -40 -4 -76 -18 -44 -16 -67 -20 -70 -12 -3 7 -5 6 -5 -2 -1 -7 -5 -10 -11
-7 -5 3 -10 2 -10 -4 0 -5 -8 -8 -17 -6 -10 1 -24 -2 -30 -8 -7 -5 -13 -6 -13
-2 0 4 -12 0 -26 -10 -15 -9 -23 -12 -19 -5 6 9 3 9 -14 1 -12 -7 -26 -9 -31
-6 -6 3 -10 2 -10 -4 0 -6 -14 -9 -31 -7 -18 2 -33 -1 -35 -9 -3 -7 -14 -11
-25 -8 -11 3 -19 0 -19 -7 0 -10 -3 -10 -15 0 -12 10 -15 10 -15 0 0 -8 -3
-11 -6 -7 -3 3 -26 0 -50 -8 -26 -7 -44 -9 -44 -3 0 5 -5 6 -10 3 -6 -4 -8
-11 -5 -16 4 -5 -4 -5 -19 1 -16 6 -26 6 -26 0 0 -5 -6 -7 -14 -4 -8 3 -17 0
-21 -6 -6 -9 -9 -9 -15 0 -5 8 -11 7 -23 -4 -9 -9 -18 -12 -21 -8 -7 11 -66 3
-66 -9 0 -6 -8 -5 -19 1 -12 6 -22 6 -25 1 -3 -5 -19 -8 -36 -7 -16 1 -30 -2
-30 -6 0 -5 -8 -4 -19 1 -13 7 -24 6 -37 -3 -13 -10 -24 -11 -38 -4 -14 7 -17
7 -11 -2 6 -9 2 -9 -14 -1 -16 9 -21 9 -21 -1 0 -10 -2 -10 -9 1 -5 8 -11 9
-15 3 -3 -5 -19 -9 -36 -8 -16 1 -30 -1 -30 -6 0 -4 -11 -3 -25 2 -15 6 -27 6
-30 0 -8 -13 -36 0 -29 14 3 6 0 4 -8 -5 -9 -11 -21 -13 -40 -8 -16 4 -28 4
-28 0 0 -4 -20 -5 -45 -4 -24 1 -47 -2 -50 -7 -4 -6 -17 -3 -33 8 -15 10 -23
12 -18 4 6 -9 1 -12 -16 -10 -12 2 -28 7 -35 11 -6 4 -14 3 -18 -3 -4 -7 -12
-7 -26 0 -12 7 -19 7 -19 1 0 -6 -11 -6 -30 -1 -20 6 -30 5 -30 -2 0 -6 -6 -6
-15 2 -12 10 -15 10 -15 -1 0 -11 -2 -11 -10 1 -7 11 -10 11 -10 2 0 -10 -5
-10 -20 -2 -11 6 -20 8 -20 4 0 -3 -6 -2 -13 5 -10 8 -17 7 -25 -1 -9 -9 -12
-9 -12 1 0 11 -3 11 -15 1 -12 -10 -15 -10 -15 0 0 10 -3 10 -15 0 -12 -10
-15 -10 -15 0 0 8 -2 11 -6 8 -3 -3 -21 -2 -40 2 -21 5 -34 4 -34 -2 0 -7 -5
-6 -13 1 -8 6 -16 8 -19 6 -3 -3 -17 -1 -31 4 -18 7 -27 7 -31 -2 -3 -9 -5 -9
-5 1 -1 6 -6 12 -12 12 -5 0 -8 -4 -4 -10 3 -5 -5 -4 -18 3 -14 7 -41 12 -61
12 -20 -1 -36 3 -36 8 0 5 -8 3 -17 -4 -9 -8 -14 -9 -10 -3 9 16 -18 25 -32
11 -8 -8 -11 -8 -11 2 0 8 -6 11 -15 7 -8 -3 -15 -1 -15 4 0 5 -6 7 -14 4 -8
-3 -23 -1 -34 5 -15 8 -21 8 -24 0 -3 -8 -9 -7 -19 3 -8 8 -20 13 -27 10 -7
-2 -20 2 -29 10 -14 11 -16 11 -8 -2 8 -13 7 -13 -8 -1 -10 8 -20 11 -24 8 -3
-4 -12 -2 -19 4 -8 6 -20 9 -29 6 -8 -4 -20 0 -28 7 -9 10 -19 11 -30 4 -13
-7 -19 -5 -23 7 -5 12 -9 13 -20 4 -12 -9 -13 -9 -9 3 5 12 0 14 -21 10 -17
-3 -25 -1 -21 5 4 6 -3 8 -18 5 -16 -3 -25 0 -25 9 0 7 -3 10 -6 7 -3 -4 -20
-2 -37 3 -18 6 -39 12 -47 14 -8 2 -22 5 -30 7 -8 1 -20 10 -27 18 -11 13 -12
13 -13 0 0 -12 -4 -10 -15 4 -11 14 -15 16 -15 5 0 -12 -2 -12 -10 1 -5 8 -10
11 -10 6 0 -4 -10 -2 -22 6 -13 8 -33 14 -45 13 -14 -1 -23 4 -23 12 0 8 -6
13 -12 12 -27 -3 -49 1 -44 10 3 4 -4 8 -17 7 -14 -1 -21 4 -19 13 3 12 0 12
-11 2 -11 -8 -16 -9 -19 -1 -2 6 -10 13 -18 15 -38 8 -60 18 -60 26 0 5 -6 6
-13 3 -8 -3 -20 2 -27 11 -7 8 -23 15 -36 15 -13 0 -24 5 -24 10 0 6 -7 10
-16 10 -9 0 -23 8 -31 18 -10 11 -12 12 -8 2 5 -12 4 -12 -7 1 -7 9 -18 14
-24 12 -6 -2 -17 3 -24 12 -7 8 -21 15 -31 15 -11 0 -19 5 -19 10 0 6 -9 10
-20 10 -11 0 -20 5 -20 10 0 6 -7 10 -16 10 -9 0 -24 9 -34 20 -10 11 -29 21
-43 22 -14 1 -23 6 -21 10 3 4 -2 8 -10 8 -9 0 -16 3 -16 8 0 4 -14 13 -30 20
-17 8 -28 18 -25 23 4 5 0 6 -8 3 -8 -3 -21 2 -30 10 -9 9 -20 16 -26 16 -6 0
-11 5 -11 10 0 6 -7 10 -15 10 -8 0 -15 4 -15 9 0 5 -13 14 -30 21 -16 7 -30
16 -30 21 0 5 -7 9 -15 9 -8 0 -15 5 -15 10 0 6 -7 10 -16 10 -9 0 -12 5 -8
12 5 8 2 9 -9 5 -11 -4 -17 -1 -17 8 0 8 -6 14 -12 13 -7 -2 -12 3 -10 10 1 6
-4 12 -11 12 -7 0 -23 9 -35 20 -12 11 -28 20 -37 20 -8 0 -14 6 -13 13 2 6
-3 11 -9 9 -7 -1 -13 5 -13 14 0 8 -5 12 -10 9 -6 -3 -10 2 -10 12 0 15 -2 16
-10 3 -7 -11 -10 -11 -10 -2 0 21 -37 55 -51 47 -7 -5 -10 -4 -6 2 4 5 -5 16
-18 23 -14 7 -25 20 -25 27 0 8 -4 11 -10 8 -9 -6 -14 7 -11 27 0 4 -6 5 -14
2 -9 -4 -19 3 -26 20 -7 14 -16 23 -21 20 -4 -3 -11 2 -14 10 -3 9 -13 16 -21
16 -8 0 -11 4 -8 10 3 6 1 10 -4 10 -6 0 -11 7 -11 16 0 8 -4 13 -9 9 -5 -3
-12 4 -16 15 -3 11 -12 20 -20 20 -8 0 -17 9 -20 20 -3 11 -13 20 -21 20 -8 0
-14 6 -14 14 0 8 -7 17 -16 20 -8 3 -12 10 -9 16 3 5 1 10 -5 10 -13 0 -49 40
-50 55 0 6 -9 16 -20 23 -11 7 -20 19 -20 27 0 8 -6 15 -13 15 -7 0 -21 16
-31 35 -11 19 -22 35 -26 35 -4 0 -10 9 -13 21 -4 13 -10 18 -18 13 -7 -4 -10
-3 -6 3 4 5 -2 19 -13 31 -14 14 -16 22 -7 25 8 4 6 6 -3 6 -18 1 -50 51 -50
78 0 15 -2 16 -10 3 -9 -13 -10 -13 -11 0 -1 8 -1 18 0 23 0 4 -7 7 -16 7 -14
0 -15 2 -5 9 11 6 10 10 -3 15 -10 4 -15 12 -11 22 3 8 2 12 -4 9 -5 -3 -12 6
-16 20 -3 13 -10 22 -15 19 -5 -3 -9 4 -9 15 0 12 -4 21 -9 21 -5 0 -11 10
-15 23 -3 13 -14 34 -26 46 -11 13 -17 28 -14 32 3 5 -2 12 -11 15 -13 5 -14
9 -4 15 11 6 10 9 -4 15 -9 3 -17 14 -17 24 0 10 -7 20 -15 24 -8 3 -12 12 -9
20 3 8 -2 26 -11 40 -9 14 -13 31 -9 37 4 8 3 9 -4 5 -7 -4 -13 -2 -13 3 -2
19 -12 45 -34 96 -8 16 -11 33 -8 39 3 5 1 6 -4 3 -6 -4 -13 0 -17 8 -3 8 0
15 7 15 8 0 6 4 -3 10 -8 5 -10 10 -5 10 6 0 3 5 -7 10 -10 6 -14 18 -11 30 3
12 0 20 -6 20 -7 0 -11 6 -10 13 3 24 -1 38 -10 32 -6 -3 -8 5 -5 19 2 14 0
28 -6 31 -6 4 -8 11 -5 16 4 5 1 9 -6 9 -8 0 -7 5 2 17 10 11 10 14 1 9 -8 -4
-13 -1 -14 11 -2 34 -11 63 -29 97 -6 10 -6 16 -1 12 5 -3 9 1 9 9 0 8 -4 12
-9 9 -4 -3 -9 7 -10 23 -1 27 -3 42 -8 53 -3 9 -10 45 -12 63 -1 9 -7 17 -12
17 -5 0 -6 3 -3 7 4 3 1 13 -6 21 -9 13 -9 14 1 8 6 -4 12 -2 12 3 0 6 -6 11
-12 11 -9 0 -8 4 2 10 13 9 13 10 0 10 -12 0 -12 2 -2 9 11 6 10 10 -3 15 -13
4 -14 10 -7 19 7 8 7 18 2 27 -6 8 -10 32 -10 53 0 20 -4 37 -8 37 -10 0 -9
30 1 47 4 6 3 13 -3 15 -5 1 -11 38 -12 80 -2 43 -7 78 -11 78 -4 0 -3 9 3 20
8 15 8 20 -2 20 -9 0 -9 3 2 10 8 5 10 10 4 10 -15 0 -26 40 -11 40 7 0 5 5
-3 10 -8 5 -10 10 -4 10 8 0 9 11 4 35 -5 21 -4 38 2 41 6 4 5 10 -3 15 -8 5
-9 9 -4 9 6 0 10 25 10 55 0 30 0 55 0 54 0 0 -9 -4 -20 -9z"/>
<path d="M4090 7242 c0 -7 -4 -10 -10 -7 -5 3 -19 1 -30 -5 -11 -6 -20 -7 -20
-1 0 5 -14 6 -35 1 -23 -5 -36 -4 -39 4 -2 6 -5 4 -5 -5 -1 -10 -9 -15 -23
-14 -13 1 -27 0 -33 -4 -5 -3 -19 -7 -30 -7 -38 -3 -65 -16 -58 -28 4 -6 -1
-5 -10 3 -13 11 -17 11 -17 1 0 -8 -3 -11 -6 -7 -3 3 -22 -3 -41 -14 -19 -11
-38 -17 -43 -14 -4 3 -10 -2 -14 -10 -3 -8 -12 -15 -21 -15 -8 0 -15 -3 -15
-8 0 -4 -13 -13 -28 -20 -16 -6 -38 -21 -50 -32 -12 -12 -22 -17 -22 -13 0 4
-7 -2 -15 -13 -8 -10 -15 -15 -15 -9 0 5 -8 -2 -17 -15 -10 -14 -17 -29 -15
-33 1 -5 -2 -6 -8 -2 -6 3 -17 -1 -26 -9 -8 -9 -13 -16 -9 -16 3 0 0 -6 -7
-14 -7 -8 -16 -12 -20 -9 -5 2 -8 -4 -8 -13 0 -10 -3 -14 -7 -11 -7 8 -39 -34
-35 -47 2 -5 -4 -6 -13 -2 -9 3 -14 2 -10 -3 3 -5 -2 -17 -11 -25 -8 -9 -13
-16 -10 -16 3 0 -3 -9 -14 -20 -12 -12 -18 -26 -14 -32 5 -7 2 -9 -9 -5 -11 4
-14 2 -10 -9 3 -7 -1 -14 -8 -14 -7 0 -9 -3 -6 -7 4 -3 -5 -22 -20 -41 -15
-20 -21 -32 -14 -28 10 7 11 4 2 -13 -7 -11 -14 -21 -17 -21 -3 0 -2 6 2 13 4
6 3 9 -1 4 -8 -7 -11 -20 -17 -64 -1 -7 -5 -13 -10 -13 -4 0 -8 -8 -8 -18 0
-10 -6 -24 -12 -31 -11 -11 -10 -12 2 -6 13 8 13 6 2 -7 -12 -16 -19 -35 -29
-90 -3 -16 -9 -28 -13 -28 -4 0 -6 -18 -6 -40 1 -22 -2 -40 -6 -40 -5 0 -8 -5
-8 -11 0 -5 6 -7 13 -4 6 4 3 -1 -7 -9 -15 -12 -16 -16 -5 -16 8 0 10 -3 4 -8
-5 -4 -10 -31 -10 -59 0 -29 -4 -53 -10 -53 -5 0 -3 -5 5 -10 8 -5 11 -10 5
-10 -5 0 -10 -18 -10 -40 0 -22 5 -40 10 -40 6 0 3 -5 -5 -10 -13 -8 -12 -10
5 -10 14 0 16 -3 7 -12 -7 -7 -8 -17 -2 -29 7 -11 7 -20 0 -24 -7 -4 -6 -13 1
-26 6 -11 8 -26 6 -34 -3 -7 0 -18 6 -24 6 -6 7 -11 3 -11 -5 0 -2 -8 5 -17
12 -15 12 -16 -1 -8 -12 7 -13 6 -3 -7 7 -8 10 -18 6 -21 -3 -4 -1 -7 5 -7 7
0 12 -5 12 -11 0 -5 -5 -7 -11 -3 -6 3 -3 -6 7 -22 11 -15 13 -25 7 -21 -9 6
-11 3 -7 -7 3 -9 10 -16 15 -16 4 0 6 -7 3 -15 -4 -9 0 -15 7 -15 12 0 12 -2
1 -9 -11 -6 -10 -10 3 -15 10 -3 15 -12 11 -21 -3 -8 -1 -15 5 -15 6 0 9 -6 6
-14 -3 -8 2 -17 11 -21 14 -5 14 -7 2 -15 -12 -8 -12 -10 3 -16 9 -3 14 -10
11 -15 -3 -5 0 -9 5 -9 6 0 10 -3 9 -7 -3 -16 15 -43 25 -36 6 3 7 1 3 -5 -8
-13 11 -49 37 -72 10 -8 19 -25 20 -37 0 -12 5 -19 9 -17 4 3 8 1 8 -4 0 -6
17 -27 38 -48 20 -21 30 -34 22 -30 -8 5 -2 -3 15 -17 16 -14 34 -23 40 -19 5
3 7 2 3 -3 -12 -13 31 -65 54 -65 11 0 22 -8 25 -20 3 -11 14 -20 25 -20 10 0
17 -4 14 -9 -3 -5 6 -12 19 -15 16 -4 23 -11 19 -18 -4 -7 -3 -8 5 -4 7 4 20
-2 32 -16 11 -13 18 -17 14 -10 -9 18 3 15 27 -8 20 -18 39 -25 61 -21 4 0 7
-2 7 -7 0 -11 58 -34 70 -27 5 3 10 2 10 -4 0 -5 9 -8 20 -6 11 2 18 0 15 -6
-4 -5 10 -9 30 -9 26 0 34 -3 29 -12 -5 -9 -2 -9 9 1 12 9 17 10 17 2 0 -9 5
-9 21 0 12 6 19 7 15 1 -3 -6 12 -11 39 -14 25 -2 47 1 49 7 3 5 5 4 5 -3 1
-7 6 -10 13 -6 17 11 78 10 78 -1 0 -5 4 -4 9 4 7 11 9 11 14 0 4 -11 6 -11 6
-1 1 7 6 10 11 7 6 -3 10 -2 10 3 0 5 7 9 15 9 8 0 15 -5 15 -10 0 -5 6 -5 13
1 7 6 32 14 55 18 23 4 42 11 42 16 0 5 5 6 10 3 6 -3 10 0 10 7 0 11 2 11 9
0 6 -10 10 -10 20 2 7 8 19 12 27 9 7 -3 17 2 20 11 3 9 10 14 14 11 5 -3 11
-1 15 5 4 6 11 8 16 5 5 -4 9 -2 9 2 0 5 18 17 41 27 22 10 43 24 46 32 4 11
8 12 20 3 8 -7 13 -8 11 -3 -2 5 7 19 20 32 12 12 22 19 22 15 0 -4 7 3 16 15
8 12 19 20 24 17 4 -3 11 2 14 11 3 8 11 12 17 8 7 -4 9 -3 6 3 -7 10 24 53
40 56 4 1 7 5 5 10 -1 4 5 7 13 7 8 0 12 6 9 13 -2 7 7 19 20 27 14 7 23 16
21 20 -2 3 9 21 25 40 16 19 27 37 24 42 -3 4 -1 8 4 8 6 0 15 14 21 30 5 17
15 30 22 30 6 0 9 7 5 15 -3 9 0 15 10 15 8 0 13 4 9 9 -3 6 8 35 25 66 17 31
26 54 20 50 -6 -4 -1 10 10 30 11 20 15 33 8 29 -9 -6 -9 -3 1 9 7 9 10 17 6
17 -4 0 -2 6 4 14 6 7 8 22 4 31 -4 13 -3 16 5 11 8 -5 12 4 12 28 0 20 5 36
11 36 8 0 8 5 -1 15 -10 12 -10 15 1 15 11 0 11 2 -1 10 -11 7 -11 10 -2 10 7
0 10 5 7 10 -3 6 -1 10 5 10 8 0 8 6 0 20 -8 14 -8 20 0 20 8 0 8 6 0 20 -6
11 -7 20 -1 20 5 0 11 14 13 30 3 17 1 30 -4 30 -5 0 -4 9 2 20 8 15 8 20 -1
20 -9 0 -9 3 0 14 8 10 9 16 1 21 -6 3 -8 11 -4 16 3 5 0 16 -6 24 -10 12 -10
15 1 15 11 0 11 2 -1 10 -8 5 -10 10 -5 10 14 0 11 53 -3 58 -8 2 -9 9 -2 22
6 12 6 20 0 22 -5 2 -11 22 -12 45 -2 24 -5 43 -8 43 -3 0 -7 12 -8 27 -1 15
-7 32 -12 37 -6 6 -10 16 -10 22 0 7 -5 25 -12 41 -6 15 -12 30 -13 33 0 3 -6
15 -13 28 -7 12 -10 27 -7 32 3 6 1 10 -5 10 -6 0 -9 4 -6 9 3 5 -1 11 -9 15
-8 3 -15 12 -15 21 0 8 -6 15 -12 15 -9 0 -8 4 2 10 10 6 11 10 3 10 -7 0 -13
6 -13 14 0 8 -7 17 -16 20 -9 4 -14 9 -11 13 4 3 -1 12 -11 20 -11 10 -12 12
-2 8 8 -4 4 2 -9 13 -15 12 -21 24 -16 32 5 8 4 11 -2 7 -6 -4 -14 0 -17 9 -3
8 -11 12 -17 8 -7 -4 -9 -3 -6 3 7 11 -58 85 -67 76 -2 -2 -7 5 -11 17 -4 13
-12 19 -21 16 -7 -3 -13 -2 -12 2 3 15 -15 42 -28 42 -8 0 -14 5 -14 10 0 6
-7 10 -16 10 -9 0 -12 5 -8 12 5 8 2 9 -10 5 -9 -4 -15 -3 -12 2 6 9 -22 26
-36 23 -5 -1 -8 2 -8 8 0 6 -5 10 -11 10 -7 0 -19 8 -28 18 -16 17 -74 43 -98
45 -7 0 -13 4 -13 9 0 5 -4 6 -10 3 -5 -3 -10 -2 -10 4 0 6 -7 8 -15 5 -8 -4
-15 -2 -15 3 0 5 -8 9 -17 10 -35 2 -67 13 -75 25 -6 10 -10 10 -18 -2 -9 -13
-10 -13 -10 0 0 12 -2 12 -9 1 -6 -9 -11 -10 -15 -2 -4 6 -12 9 -17 6 -5 -4
-9 -2 -9 4 0 10 -25 9 -36 -2 -4 -4 -13 -2 -21 4 -10 9 -13 8 -13 -2 0 -8 -6
-5 -15 7 -11 14 -14 15 -15 4 0 -13 -1 -13 -10 0 -7 11 -10 11 -10 2z"/>
<path d="M73 5395 c0 -8 6 -16 14 -19 11 -4 11 -1 3 14 -13 24 -17 25 -17 5z"/>
<path d="M67 5362 c10 -6 9 -14 -1 -34 -11 -20 -11 -28 -3 -32 8 -3 9 -7 2
-13 -5 -4 -10 -32 -10 -61 0 -30 -4 -56 -8 -59 -4 -3 -3 -11 4 -19 9 -11 9
-14 0 -14 -7 0 -10 -4 -7 -9 4 -5 0 -12 -6 -14 -10 -4 -9 -6 1 -6 11 -1 11 -4
1 -16 -10 -12 -10 -15 0 -15 10 0 10 -3 0 -15 -10 -12 -10 -15 0 -15 10 0 10
-3 0 -15 -8 -9 -9 -20 -4 -27 11 -15 10 -35 0 -60 -4 -9 -5 -22 -1 -28 3 -5 0
-10 -7 -10 -9 0 -9 -3 2 -10 8 -5 11 -10 5 -10 -5 0 -10 -17 -10 -37 0 -21 5
-41 10 -45 6 -5 5 -8 -4 -8 -11 0 -11 -3 -1 -15 7 -8 9 -15 4 -15 -5 0 -7 -25
-6 -55 2 -30 8 -55 14 -55 6 0 5 -6 -2 -15 -10 -12 -10 -15 1 -15 11 0 11 -2
-1 -10 -13 -9 -13 -10 0 -10 9 0 11 -3 5 -8 -11 -8 -15 -52 -5 -52 4 0 7 -7 7
-15 0 -8 -5 -15 -11 -15 -6 0 -4 -5 4 -10 13 -9 13 -10 0 -10 -9 0 -11 -3 -4
-8 14 -9 26 -42 15 -42 -5 0 -5 -16 -1 -37 5 -20 7 -41 4 -45 -3 -4 0 -8 6 -8
6 0 8 -5 3 -12 -11 -19 -12 -38 -2 -38 5 0 9 -15 7 -34 -1 -19 4 -41 11 -50
10 -12 11 -16 1 -16 -10 0 -10 -3 0 -15 10 -12 10 -15 0 -15 -10 0 -10 -3 0
-15 7 -8 10 -26 8 -40 -3 -13 -2 -22 3 -20 4 3 10 1 13 -4 4 -5 2 -13 -4 -16
-8 -5 -7 -11 1 -21 9 -11 8 -14 -2 -15 -8 0 -5 -4 6 -9 11 -5 15 -9 8 -9 -13
-1 -5 -41 9 -41 5 0 4 -8 -1 -19 -8 -14 -7 -22 3 -30 8 -7 13 -23 11 -36 -1
-14 2 -25 7 -25 6 0 8 -7 4 -15 -3 -8 -2 -15 3 -15 5 0 7 -11 6 -25 -2 -14 1
-25 6 -25 5 0 9 -10 9 -23 0 -13 3 -27 7 -30 3 -4 8 -21 10 -39 2 -18 9 -36
16 -40 9 -6 9 -8 -1 -8 -7 0 -10 -5 -7 -10 4 -6 10 -8 15 -5 4 3 6 -4 3 -15
-3 -11 -1 -20 4 -20 5 0 10 -14 11 -32 2 -18 8 -36 15 -40 9 -6 8 -8 -2 -8
-11 0 -9 -4 5 -15 10 -8 15 -15 11 -15 -4 0 -2 -10 5 -22 7 -13 11 -29 10 -35
-2 -7 2 -13 9 -13 8 0 7 -5 -2 -17 -10 -11 -10 -14 -2 -9 12 6 18 -5 14 -26 0
-5 3 -8 7 -8 4 0 14 -20 21 -45 7 -25 17 -45 23 -45 5 0 6 -4 3 -10 -3 -5 0
-10 7 -10 10 0 10 -2 -1 -9 -9 -6 -10 -10 -2 -16 13 -7 47 -85 43 -97 -1 -5 3
-8 9 -8 5 0 7 -4 4 -10 -3 -5 -1 -10 5 -10 6 0 8 -4 5 -10 -3 -5 -1 -10 5 -10
6 0 8 -4 5 -10 -3 -5 -1 -10 5 -10 7 0 10 -7 6 -15 -3 -8 -1 -15 4 -15 6 0 10
-7 10 -15 0 -8 5 -15 10 -15 6 0 10 -9 10 -20 0 -11 5 -20 10 -20 6 0 10 -7
10 -15 0 -8 4 -15 10 -15 5 0 7 -7 4 -15 -4 -8 -1 -15 4 -15 10 0 22 -25 21
-43 0 -5 9 -17 20 -26 12 -10 21 -23 21 -30 0 -6 6 -11 13 -11 9 0 8 -3 -2 -9
-11 -7 -9 -11 8 -20 11 -7 21 -21 21 -32 0 -11 7 -22 15 -25 9 -4 14 -14 13
-23 -2 -9 3 -16 13 -15 9 1 16 -5 16 -12 0 -7 -5 -10 -10 -7 -6 3 -7 1 -3 -5
4 -7 14 -12 22 -12 8 0 13 -3 13 -7 -3 -18 2 -30 26 -57 14 -16 25 -35 25 -41
0 -7 11 -20 24 -31 14 -10 23 -21 20 -25 -2 -4 5 -14 17 -23 13 -9 18 -19 14
-27 -5 -7 -4 -10 3 -5 6 3 13 -3 17 -14 3 -11 11 -20 16 -20 6 0 8 -3 6 -7 -6
-10 19 -34 27 -26 3 4 6 1 6 -6 0 -7 7 -19 15 -28 8 -8 12 -19 9 -25 -4 -7 -2
-8 4 -4 7 4 12 1 12 -8 0 -9 7 -16 15 -16 14 0 20 -12 16 -33 -1 -5 3 -6 9 -2
5 3 15 -5 21 -19 7 -14 16 -23 20 -20 5 3 11 -6 14 -18 3 -13 16 -28 28 -33
12 -6 26 -20 32 -33 5 -12 16 -22 24 -22 8 0 11 -3 8 -7 -4 -3 8 -17 25 -30
18 -12 25 -23 18 -23 -8 0 0 -10 17 -22 18 -13 33 -29 33 -36 0 -7 4 -11 8 -8
4 2 18 -9 31 -25 13 -16 29 -29 36 -29 7 0 19 -8 26 -17 13 -17 13 -17 -6 -3
-19 14 -19 14 -6 -3 7 -9 18 -17 24 -17 5 0 23 -13 39 -30 15 -16 33 -30 39
-30 5 0 7 -4 4 -10 -3 -5 1 -10 9 -10 9 0 16 -7 16 -16 0 -8 4 -12 10 -9 5 3
10 1 10 -4 0 -6 7 -11 17 -11 9 0 13 -3 10 -6 -9 -9 33 -45 44 -38 5 3 9 -2 9
-11 0 -9 5 -13 10 -10 6 3 10 -1 10 -10 0 -8 11 -20 24 -25 13 -5 27 -14 31
-20 3 -5 11 -7 17 -4 7 4 8 2 4 -4 -4 -7 3 -17 18 -24 14 -6 26 -15 26 -20 0
-4 8 -8 19 -8 10 0 21 -9 24 -20 3 -12 14 -20 27 -20 11 0 18 -4 15 -10 -3 -5
1 -10 10 -10 9 0 27 -11 40 -24 13 -14 34 -27 45 -31 11 -3 20 -11 20 -16 0
-5 9 -9 21 -9 11 0 17 -4 14 -10 -3 -5 1 -10 9 -10 9 0 16 -5 16 -11 0 -5 4
-8 9 -5 4 3 19 -3 31 -14 12 -11 31 -22 41 -25 11 -4 19 -11 19 -16 0 -5 8 -9
18 -9 10 0 24 -9 32 -20 10 -14 16 -16 22 -7 5 8 8 7 8 -5 0 -11 5 -15 14 -12
8 3 17 0 21 -5 3 -6 11 -9 16 -5 5 3 8 0 7 -6 -2 -7 6 -14 17 -16 11 -1 21 -8
23 -13 2 -6 11 -11 20 -11 17 -1 54 -24 49 -31 -1 -2 2 -1 7 3 5 4 17 -3 27
-15 12 -15 18 -17 19 -8 0 10 5 8 18 -6 9 -11 23 -18 30 -16 6 3 12 0 12 -6 0
-6 7 -7 17 -4 12 5 14 3 8 -8 -7 -11 -5 -11 10 1 10 8 16 11 13 5 -8 -14 12
-29 42 -33 14 -2 27 -8 28 -13 2 -5 12 -9 22 -9 10 0 20 -4 22 -10 2 -5 15
-11 31 -12 15 -1 27 -6 27 -11 0 -4 5 -5 10 -2 6 3 10 1 10 -5 0 -7 7 -10 15
-6 8 3 15 1 15 -5 0 -6 7 -9 15 -5 8 3 15 1 15 -5 0 -6 4 -7 10 -4 5 3 10 1
10 -5 0 -6 4 -9 9 -5 5 3 16 -1 24 -9 11 -11 17 -12 27 -3 10 9 11 9 5 -2 -6
-11 -4 -13 8 -8 10 3 17 2 17 -4 0 -6 4 -7 10 -4 6 3 10 1 10 -6 0 -7 3 -10 6
-6 3 3 30 -3 59 -13 29 -10 56 -16 59 -13 3 4 6 1 6 -5 0 -7 3 -11 8 -11 24 4
62 -2 58 -9 -5 -9 1 -10 49 -13 15 -1 22 -6 18 -13 -4 -6 1 -5 10 3 15 11 17
11 17 -2 0 -10 6 -13 19 -10 10 3 28 0 40 -6 12 -7 21 -8 21 -2 0 5 15 2 32
-7 32 -16 77 -24 130 -26 16 0 28 -3 28 -7 0 -4 8 -8 18 -8 24 0 50 -6 58 -14
4 -4 13 -2 21 4 10 9 13 8 13 -1 0 -8 3 -10 7 -7 3 4 12 2 20 -4 9 -8 13 -8
13 -1 0 8 14 7 44 -2 33 -10 47 -11 56 -2 8 8 13 8 18 -1 4 -7 35 -13 70 -14
34 -1 62 -7 62 -12 0 -5 7 -4 15 3 12 10 15 10 15 0 0 -10 4 -10 16 1 13 10
17 10 24 0 6 -11 9 -11 15 -1 6 10 10 10 19 -1 11 -14 66 -21 66 -8 0 4 13 4
30 -1 17 -5 30 -5 30 0 0 5 13 5 30 0 19 -5 32 -5 36 2 4 6 10 5 15 -3 7 -11
9 -11 9 -1 0 9 5 10 18 3 11 -6 24 -6 35 0 12 7 17 6 17 -3 0 -9 3 -9 10 2 5
8 10 11 10 5 0 -6 33 -10 80 -10 47 0 80 4 80 10 0 6 5 3 10 -5 6 -9 10 -11
10 -3 0 7 7 10 15 7 8 -4 22 -1 30 6 12 10 15 10 15 0 0 -10 3 -10 15 0 10 8
15 9 15 1 0 -7 8 -8 26 -1 14 6 23 6 20 2 -2 -4 4 -8 14 -8 10 0 16 5 13 10
-4 5 1 7 10 3 10 -4 17 -1 17 6 0 8 4 6 10 -3 5 -8 10 -10 10 -5 0 6 23 10 51
10 28 0 53 3 55 7 3 4 11 5 19 1 8 -3 15 0 15 6 0 9 5 9 20 1 16 -9 22 -8 26
5 3 8 10 12 15 9 5 -3 6 -11 2 -17 -4 -7 5 -4 19 5 20 13 28 14 31 5 4 -9 6
-9 6 1 1 7 6 10 11 7 6 -3 10 -1 10 6 0 8 4 8 15 -1 12 -10 15 -10 15 0 0 7 7
10 15 7 8 -4 17 -2 20 2 3 5 14 7 25 4 12 -3 20 0 20 6 0 7 5 9 11 5 6 -3 15
0 20 7 7 11 9 11 9 1 0 -10 5 -10 20 -2 11 6 20 8 20 4 0 -3 6 -2 13 4 6 5 24
8 40 6 15 -1 25 1 22 7 -3 5 1 6 9 3 9 -4 16 -1 16 6 0 9 4 9 17 -1 10 -8 14
-9 10 -2 -4 6 -3 14 3 18 5 3 10 0 10 -7 0 -10 2 -10 9 1 5 8 16 11 25 8 9 -4
16 -3 16 2 0 5 17 12 38 16 20 4 43 12 51 18 11 9 13 9 8 0 -5 -7 5 -6 24 4
17 8 42 16 55 16 13 0 21 3 18 8 -3 5 2 6 10 3 9 -3 16 -1 16 4 0 6 9 9 20 7
11 -2 20 0 20 6 0 5 9 9 21 9 11 0 18 4 15 9 -3 4 6 7 19 5 14 -1 25 2 25 7 0
5 3 8 8 7 14 -3 62 14 62 23 0 5 3 8 8 8 18 -4 71 14 66 22 -3 5 2 6 10 3 10
-4 16 -1 16 7 0 7 3 9 7 6 3 -4 16 -1 27 6 12 8 31 13 43 12 12 -1 20 2 17 6
-3 5 7 11 21 15 14 3 25 11 25 16 0 6 8 4 17 -3 11 -10 14 -10 9 -1 -4 7 -2
12 4 12 6 0 9 4 6 9 -3 4 5 7 19 6 14 -2 26 3 29 12 4 8 13 13 20 10 8 -3 17
1 20 9 3 9 10 12 16 9 5 -3 10 -2 10 2 0 9 59 37 73 34 4 -1 10 6 13 14 5 13
9 13 22 3 11 -9 14 -9 9 -1 -7 12 29 40 46 35 4 -1 7 3 7 9 0 5 4 8 9 5 5 -3
12 1 15 10 3 8 10 13 15 9 6 -3 14 3 20 12 6 10 11 14 11 10 0 -5 13 1 29 12
16 12 34 21 40 21 6 0 11 5 11 10 0 6 6 10 14 10 8 0 16 7 20 15 3 8 11 14 18
13 7 -2 12 2 11 9 -2 7 4 10 12 7 8 -4 15 -1 15 6 0 6 3 9 8 7 10 -7 32 19 24
28 -4 4 -2 6 3 5 17 -4 55 12 50 20 -3 4 7 11 20 14 14 4 23 10 20 15 -2 5 2
12 11 15 10 4 13 2 9 -7 -4 -6 1 -3 10 8 9 11 21 19 27 17 6 -2 8 4 4 14 -5
12 -2 15 9 10 9 -3 18 1 21 9 4 8 12 15 20 15 8 0 14 7 14 15 0 8 3 14 8 14
19 -3 33 2 27 11 -3 5 6 12 20 16 13 3 22 10 19 15 -3 5 2 9 11 9 9 0 13 5 10
10 -3 6 0 10 8 10 18 0 79 55 70 64 -4 4 1 4 11 0 12 -5 17 -4 13 3 -3 5 5 16
18 23 13 7 22 17 20 21 -3 4 4 10 14 14 11 3 23 15 26 26 4 10 11 17 16 14 8
-6 13 9 10 28 -1 5 3 6 8 3 5 -4 29 12 53 34 99 92 125 120 120 125 -3 3 0 5
7 5 7 0 9 5 6 10 -3 6 2 10 11 10 10 0 15 3 11 6 -9 9 21 36 32 29 6 -3 8 4 6
16 -3 15 0 19 10 15 8 -3 14 -2 14 2 -3 20 2 33 11 27 6 -3 10 0 10 7 0 8 15
26 32 42 18 16 33 31 32 35 0 3 4 11 10 17 6 6 17 21 25 32 8 12 19 18 24 15
6 -3 7 -1 4 4 -4 6 0 16 8 23 8 7 15 19 15 28 0 8 3 12 7 9 9 -10 43 44 36 57
-3 6 -3 8 1 4 11 -9 43 24 38 39 -2 7 1 13 7 13 6 0 11 7 11 15 0 8 7 15 15
15 8 0 15 7 15 15 0 9 7 18 16 22 13 5 13 7 2 14 -10 7 -11 9 0 9 7 0 11 4 7
9 -3 5 4 12 15 16 11 4 18 11 15 16 -4 5 -1 9 5 9 6 0 10 8 8 18 -2 10 2 16
10 14 8 -1 11 2 8 7 -4 5 0 16 8 23 7 8 17 24 20 36 4 12 12 22 17 22 6 0 7 5
4 10 -3 6 -1 10 5 10 7 0 10 7 6 15 -5 13 5 19 26 16 4 0 5 6 2 14 -4 8 -2 15
3 15 5 0 10 10 10 22 1 13 10 29 20 36 10 7 17 15 16 17 -5 10 10 35 17 30 5
-3 6 4 3 15 -3 11 0 20 6 20 6 0 10 3 9 8 -3 14 35 81 44 76 4 -3 8 0 8 5 0 6
-6 11 -12 11 -8 1 -6 6 5 14 10 8 19 23 20 35 1 12 5 21 10 21 5 0 7 6 5 12
-3 7 1 19 9 26 7 8 11 17 8 22 -3 4 2 11 11 14 8 3 13 10 9 15 -3 5 4 26 15
45 11 20 17 36 14 36 -4 0 1 12 11 26 11 18 12 24 4 18 -11 -6 -10 -3 1 10 8
10 16 27 17 39 2 12 9 25 16 29 6 4 8 8 3 8 -5 0 -2 8 5 17 12 14 12 15 0 9
-8 -6 -7 0 4 18 10 14 14 26 10 26 -4 0 -2 7 5 15 7 8 9 15 5 15 -4 0 -2 7 5
15 7 8 9 15 5 15 -5 0 0 10 11 22 10 12 13 18 7 14 -16 -9 -16 -6 2 37 8 19
11 37 8 41 -4 3 0 6 7 6 7 0 10 3 7 7 -4 3 -1 13 6 21 10 13 9 14 -3 7 -13 -8
-13 -6 -2 8 13 15 20 41 25 92 1 11 9 25 17 32 12 10 12 12 1 13 -9 0 -10 4
-4 13 6 6 9 22 8 35 -1 12 1 22 5 22 4 0 7 6 8 13 3 36 9 68 15 74 4 3 2 12
-4 20 -7 8 -8 13 -1 13 5 0 13 7 16 16 4 10 2 13 -7 8 -6 -4 -4 1 5 12 14 16
15 23 6 32 -7 7 -8 12 -2 12 5 0 9 17 9 38 0 20 5 40 10 44 6 5 4 8 -4 8 -11
0 -10 4 5 16 10 8 13 13 7 9 -7 -3 -13 -1 -13 4 0 6 8 11 18 11 13 0 14 2 3 9
-9 6 -12 19 -7 42 12 70 13 78 5 73 -5 -3 -5 5 0 18 5 13 8 44 7 71 0 26 4 47
9 47 6 0 3 5 -5 10 -8 5 -10 10 -4 10 6 0 10 11 9 25 -2 14 2 25 8 25 7 0 6 4
-2 9 -12 8 -12 12 -2 24 8 10 9 17 1 22 -6 4 -7 12 -1 23 6 11 6 24 0 35 -7
12 -6 17 3 17 9 0 9 3 -2 10 -11 7 -11 10 -2 10 9 0 10 5 2 19 -7 14 -7 22 0
26 7 5 8 11 1 19 -6 7 -6 17 -1 26 5 8 5 21 -1 31 -6 12 -5 19 4 23 9 5 9 7
-1 12 -10 5 -10 9 -1 20 9 11 9 14 0 14 -7 0 -11 14 -10 38 2 21 -1 43 -5 50
-4 7 -2 12 5 12 7 0 4 7 -7 16 -10 8 -13 13 -6 9 8 -4 12 2 12 19 0 14 -5 26
-11 26 -6 0 -7 5 -2 13 12 19 12 37 1 37 -6 0 -5 6 2 15 7 8 8 15 3 15 -5 0
-10 6 -11 13 0 6 -3 24 -5 40 -3 15 0 27 7 27 6 0 5 4 -3 9 -7 5 -11 13 -8 18
3 5 1 10 -6 10 -8 0 -11 -12 -9 -35 3 -26 1 -33 -8 -27 -9 6 -9 3 -1 -13 8
-15 8 -23 0 -28 -8 -4 -7 -9 2 -15 12 -7 12 -9 0 -9 -10 0 -11 -3 -2 -14 9
-11 9 -15 -1 -19 -10 -4 -10 -7 1 -15 9 -7 10 -12 2 -16 -6 -4 -9 -12 -6 -17
4 -5 2 -9 -3 -9 -5 0 -6 -19 -2 -43 4 -31 2 -47 -8 -56 -11 -10 -11 -15 -2
-21 9 -6 9 -12 0 -30 -10 -18 -9 -24 1 -31 9 -6 10 -9 2 -9 -6 0 -12 -12 -12
-27 -1 -41 -6 -67 -15 -81 -4 -7 -2 -12 4 -12 6 0 4 -10 -6 -25 -11 -17 -12
-25 -5 -25 7 0 9 -5 4 -12 -4 -7 -8 -17 -10 -23 -1 -5 -5 -23 -9 -40 -3 -16
-7 -43 -8 -60 0 -16 -5 -33 -9 -36 -5 -3 -10 -17 -12 -30 -2 -13 -6 -39 -9
-58 -3 -18 -11 -40 -18 -49 -7 -8 -12 -17 -10 -19 1 -1 2 -15 2 -29 0 -17 -4
-23 -12 -18 -8 5 -7 0 2 -11 9 -11 10 -16 2 -11 -8 5 -12 0 -12 -16 0 -13 -5
-29 -12 -36 -9 -9 -9 -12 3 -12 10 -1 10 -4 -4 -14 -10 -8 -18 -17 -17 -20 2
-15 -13 -76 -19 -76 -4 0 -8 -6 -8 -12 -1 -23 -8 -43 -18 -50 -6 -5 -5 -8 3
-8 6 0 12 -5 12 -11 0 -5 -4 -7 -10 -4 -5 3 -10 -1 -10 -10 0 -9 -3 -14 -7
-12 -5 3 -9 -9 -10 -26 -1 -17 -8 -34 -14 -38 -7 -4 -9 -14 -6 -23 4 -9 3 -16
-1 -16 -13 0 -41 -70 -37 -91 2 -11 0 -17 -5 -14 -5 3 -14 -4 -20 -15 -6 -11
-8 -20 -4 -20 3 0 1 -6 -5 -13 -6 -8 -8 -17 -4 -20 3 -4 1 -7 -6 -7 -7 0 -11
-6 -8 -14 3 -7 -3 -20 -14 -29 -10 -9 -19 -24 -19 -32 0 -9 -4 -13 -10 -10 -6
3 -7 -1 -4 -10 4 -9 -1 -22 -12 -31 -11 -9 -12 -12 -5 -8 9 4 6 -6 -8 -24 -12
-18 -20 -36 -17 -41 3 -5 -1 -12 -10 -15 -8 -3 -12 -10 -9 -16 3 -5 1 -10 -4
-10 -6 0 -10 -3 -9 -7 3 -17 -15 -42 -26 -36 -6 4 -5 -1 3 -10 8 -10 11 -20 7
-24 -3 -3 -6 0 -6 7 0 9 -5 7 -14 -5 -8 -11 -12 -23 -10 -27 2 -4 0 -9 -6 -13
-6 -4 -7 -12 -4 -18 4 -7 4 -9 -1 -5 -11 10 -38 -29 -30 -42 3 -6 -1 -10 -10
-10 -9 0 -14 -4 -11 -9 3 -5 -1 -14 -9 -21 -8 -7 -13 -16 -10 -20 3 -4 -2 -10
-10 -14 -8 -3 -15 -12 -15 -20 0 -8 -10 -22 -22 -30 -12 -9 -17 -16 -10 -16 7
0 1 -11 -13 -25 -14 -14 -25 -30 -25 -36 0 -6 -4 -7 -10 -4 -9 5 -15 -16 -11
-38 1 -5 -3 -6 -9 -2 -5 3 -13 -2 -17 -11 -3 -10 -14 -25 -22 -35 -32 -35 -40
-47 -35 -52 3 -3 -4 -8 -15 -12 -12 -3 -19 -10 -16 -15 3 -4 -2 -10 -10 -14
-8 -3 -15 -12 -15 -21 0 -8 -4 -15 -10 -15 -5 0 -10 -7 -10 -16 0 -8 -4 -13
-9 -10 -4 3 -13 -6 -20 -20 -6 -14 -16 -22 -21 -19 -6 4 -7 -1 -3 -11 4 -11 2
-15 -4 -11 -10 7 -28 -19 -25 -35 1 -5 -5 -8 -13 -8 -8 0 -15 -4 -15 -9 0 -5
-13 -23 -30 -41 -16 -18 -27 -36 -24 -41 3 -5 2 -8 -3 -7 -13 5 -53 -28 -45
-37 4 -4 -1 -5 -11 -2 -11 4 -16 3 -12 -3 3 -6 -1 -13 -9 -16 -9 -3 -13 -10
-10 -15 3 -5 -2 -9 -11 -9 -9 0 -13 -4 -10 -10 3 -5 1 -10 -5 -10 -6 0 -8 -5
-4 -12 4 -7 3 -8 -4 -4 -12 7 -54 -29 -44 -38 3 -3 -2 -6 -11 -6 -10 0 -16 -3
-15 -7 2 -5 0 -8 -4 -8 -10 0 -43 -48 -40 -58 1 -5 -2 -6 -8 -2 -6 3 -22 -3
-36 -14 -15 -12 -23 -21 -18 -21 5 0 -3 -8 -19 -18 -15 -10 -25 -21 -21 -24 3
-3 -1 -5 -10 -5 -8 1 -15 -1 -15 -5 -1 -9 -34 -45 -41 -45 -31 -2 -40 -4 -39
-10 4 -23 -3 -35 -16 -29 -10 3 -15 -1 -15 -11 0 -9 -3 -14 -6 -11 -3 3 -16
-5 -30 -19 -13 -13 -29 -21 -34 -18 -6 4 -9 1 -8 -7 2 -7 -2 -12 -9 -11 -6 2
-15 -6 -18 -17 -4 -11 -10 -18 -15 -15 -5 3 -16 -2 -24 -11 -9 -8 -16 -12 -16
-7 0 4 -7 -3 -16 -15 -8 -12 -19 -20 -24 -17 -4 3 -10 -2 -14 -10 -3 -8 -12
-15 -21 -15 -8 0 -15 -4 -15 -10 0 -5 -6 -10 -13 -10 -7 0 -23 -9 -35 -20 -12
-12 -22 -17 -22 -13 0 4 -5 0 -11 -9 -5 -10 -15 -18 -20 -18 -6 0 -24 -9 -40
-21 -16 -11 -34 -17 -40 -13 -8 4 -9 3 -5 -4 4 -8 -3 -16 -18 -22 -14 -5 -26
-14 -26 -20 0 -5 -5 -10 -11 -10 -5 0 -7 6 -3 13 4 6 -2 4 -13 -6 -11 -9 -23
-14 -28 -10 -4 5 -5 2 -1 -5 5 -9 1 -15 -13 -19 -12 -3 -21 -10 -21 -15 0 -6
-8 -4 -17 3 -9 8 -14 9 -10 3 3 -6 -6 -17 -21 -25 -15 -8 -29 -16 -32 -19 -3
-3 -16 -11 -29 -18 -19 -11 -22 -11 -16 0 3 7 0 5 -7 -4 -8 -9 -26 -20 -41
-23 -15 -4 -24 -11 -21 -16 3 -5 -3 -6 -12 -2 -13 5 -15 3 -9 -7 5 -9 4 -11
-3 -6 -6 4 -25 0 -42 -9 -16 -8 -30 -12 -30 -8 0 5 -5 0 -11 -10 -6 -9 -14
-15 -19 -12 -5 3 -24 -4 -42 -14 -24 -15 -34 -17 -40 -8 -5 8 -8 7 -8 -5 0
-16 -17 -23 -42 -19 -5 0 -8 -4 -8 -10 0 -6 -7 -8 -15 -5 -9 3 -18 -1 -22 -10
-5 -13 -7 -13 -14 -2 -7 10 -9 10 -9 1 0 -7 -7 -13 -15 -13 -8 0 -15 -6 -15
-12 0 -9 -4 -8 -10 2 -7 11 -10 11 -10 2 0 -7 -4 -11 -9 -7 -5 3 -13 0 -16 -6
-4 -5 -13 -8 -21 -5 -8 3 -14 1 -14 -5 0 -6 -4 -7 -10 -4 -5 3 -10 1 -10 -4 0
-6 -9 -11 -20 -11 -11 0 -20 -6 -20 -12 0 -9 -4 -8 -10 2 -9 13 -10 13 -10 0
0 -13 -1 -13 -10 0 -8 12 -10 12 -16 -3 -4 -10 -12 -16 -20 -13 -7 3 -15 0
-18 -7 -3 -8 -5 -8 -5 1 -1 10 -5 10 -17 -2 -8 -9 -20 -14 -25 -10 -6 3 -16 1
-24 -6 -8 -6 -22 -10 -32 -9 -10 2 -28 -2 -39 -9 -12 -6 -24 -8 -28 -5 -3 3
-6 1 -6 -7 0 -9 -3 -10 -14 -1 -8 7 -16 8 -18 2 -1 -5 -12 -11 -23 -13 -11 -1
-23 -7 -27 -13 -5 -6 -8 -5 -8 3 0 6 -5 12 -11 12 -5 0 -7 -5 -4 -10 3 -6 3
-10 -2 -11 -74 -5 -106 -12 -115 -24 -5 -6 -8 -5 -8 3 0 10 -6 9 -28 -2 -17
-9 -34 -11 -42 -6 -9 6 -18 3 -27 -8 -7 -9 -13 -12 -13 -5 0 6 -9 9 -20 6 -11
-3 -17 -9 -14 -14 3 -5 1 -9 -5 -9 -5 0 -12 6 -14 13 -4 9 -6 9 -6 -1 -1 -10
-6 -10 -21 -2 -15 8 -20 8 -20 -1 0 -7 -3 -9 -6 -6 -4 3 -15 2 -25 -4 -13 -7
-19 -6 -19 1 0 7 -6 8 -18 1 -9 -5 -37 -10 -62 -12 -25 -1 -53 -6 -62 -11 -10
-5 -19 -4 -23 2 -4 7 -13 7 -26 0 -13 -8 -19 -7 -19 0 0 7 -6 8 -19 0 -11 -5
-27 -7 -35 -4 -9 3 -16 1 -16 -4 0 -7 -10 -8 -30 -2 -19 5 -30 5 -30 -1 0 -6
-8 -5 -20 1 -15 8 -20 8 -20 -2 0 -9 -3 -9 -10 2 -5 8 -10 10 -10 4 0 -7 -17
-8 -50 -4 -33 4 -50 3 -50 -4 0 -6 -5 -4 -10 4 -5 8 -10 10 -10 4 0 -7 -17 -8
-50 -4 -33 4 -50 3 -50 -4 0 -6 -5 -4 -10 4 -6 9 -10 10 -10 3 0 -8 -9 -9 -29
-3 -20 5 -31 5 -34 -3 -2 -7 -8 -7 -18 -2 -20 13 -39 15 -39 4 0 -6 -7 -6 -19
0 -10 6 -21 7 -25 4 -3 -3 -6 -1 -6 6 0 9 -5 9 -20 1 -13 -7 -20 -7 -20 -1 0
7 -9 7 -26 1 -19 -7 -23 -7 -18 2 5 8 2 9 -9 5 -10 -4 -17 -1 -17 6 0 8 -4 6
-10 -3 -9 -13 -10 -13 -10 0 0 11 -2 12 -8 3 -6 -10 -13 -10 -33 1 -15 7 -35
10 -52 5 -15 -4 -27 -4 -27 1 0 4 -13 7 -30 6 -16 -1 -32 3 -34 8 -2 6 -5 5
-5 -2 -1 -10 -5 -10 -17 2 -11 12 -20 13 -33 6 -11 -5 -22 -5 -27 0 -5 5 -24
10 -42 12 -17 1 -32 6 -32 11 0 5 -7 4 -15 -3 -8 -7 -15 -8 -15 -3 0 5 -10 10
-22 11 -38 4 -52 7 -67 16 -11 7 -12 6 -6 -5 8 -12 6 -12 -8 -1 -9 8 -26 15
-39 18 -13 2 -35 5 -49 8 -15 2 -36 9 -48 15 -16 9 -21 9 -21 -1 0 -10 -2 -10
-8 -1 -5 7 -20 14 -35 15 -15 1 -27 6 -27 10 0 4 -13 8 -30 8 -17 0 -30 5 -30
13 0 8 -4 7 -10 -3 -8 -13 -10 -12 -10 3 0 9 -5 17 -11 17 -5 0 -7 -4 -4 -10
3 -6 -1 -7 -9 -4 -9 3 -16 10 -16 16 0 5 -4 7 -9 3 -5 -3 -13 0 -17 6 -5 8 -8
8 -14 -1 -5 -8 -11 -7 -23 5 -9 9 -21 13 -27 10 -5 -3 -10 -1 -10 5 0 6 -4 9
-8 6 -5 -3 -23 4 -41 15 -18 11 -29 15 -26 8 5 -7 -1 -6 -16 2 -13 7 -30 12
-36 11 -7 -2 -13 1 -13 6 0 5 -8 12 -17 16 -10 3 -28 10 -41 16 -14 6 -21 6
-17 0 7 -11 -57 21 -66 33 -3 5 -8 8 -10 8 -11 -4 -69 22 -69 30 0 5 -3 8 -7
7 -13 -4 -73 24 -73 33 0 5 -11 9 -25 9 -14 0 -25 5 -25 10 0 6 -9 10 -20 10
-11 0 -20 3 -20 8 0 10 -50 32 -73 32 -10 0 -16 4 -13 9 6 9 -18 24 -40 26 -6
0 -19 8 -29 18 -10 10 -24 16 -32 13 -8 -3 -12 -2 -10 2 3 4 -1 12 -8 19 -11
10 -15 10 -18 0 -3 -7 -6 -4 -6 6 -1 9 -7 17 -15 17 -8 0 -22 7 -30 16 -9 8
-20 13 -25 9 -5 -3 -13 0 -17 6 -4 8 -3 9 4 5 7 -4 12 -5 12 -2 0 3 -16 13
-35 22 -19 9 -35 21 -35 26 0 5 -4 7 -9 3 -5 -3 -16 4 -24 16 -11 15 -16 17
-20 7 -4 -10 -6 -9 -6 2 -1 19 -38 43 -53 34 -6 -4 -8 -3 -4 4 3 6 -3 13 -14
17 -11 3 -20 11 -20 16 0 5 -6 9 -12 9 -7 0 -35 21 -63 46 -27 26 -51 45 -52
43 -1 -2 -13 6 -26 18 -14 12 -28 19 -30 16 -3 -2 -8 5 -12 16 -6 19 -16 25
-30 19 -3 -2 -14 12 -25 30 -11 17 -23 32 -26 32 -4 0 0 -8 7 -17 7 -10 -6 1
-30 24 -24 24 -48 40 -52 37 -5 -3 -6 2 -3 10 3 9 2 16 -2 16 -15 0 -74 57
-67 64 3 3 -1 6 -10 6 -9 0 -17 5 -17 10 0 6 -7 10 -16 10 -9 0 -18 9 -21 20
-3 11 -11 20 -18 20 -8 0 -17 9 -20 20 -4 11 -10 18 -15 15 -4 -3 -11 6 -14
20 -4 14 -13 25 -22 25 -8 0 -12 5 -9 10 6 9 -8 14 -28 11 -5 -1 -6 3 -3 8 7
10 -31 51 -46 51 -5 0 -6 5 -3 10 3 6 -1 13 -9 16 -9 3 -16 13 -16 21 0 8 -5
11 -10 8 -5 -3 -10 1 -10 10 0 10 -5 13 -12 9 -8 -5 -9 -2 -5 9 4 11 1 17 -8
17 -7 0 -16 9 -20 20 -3 10 -19 30 -35 44 -19 16 -25 26 -17 29 7 3 5 6 -5 6
-10 1 -18 7 -18 14 0 7 -8 20 -17 29 -28 26 -43 46 -43 58 0 5 -4 10 -10 10
-5 0 -10 7 -10 15 0 8 -7 15 -16 15 -8 0 -13 4 -9 9 3 5 -1 16 -9 24 -8 8 -12
17 -9 21 4 3 2 6 -4 6 -6 0 -18 12 -28 26 -9 15 -11 23 -4 19 8 -5 10 -4 5 3
-4 7 -14 12 -21 12 -9 0 -12 6 -8 17 4 11 3 14 -5 9 -8 -5 -12 0 -12 14 0 12
-4 18 -10 15 -6 -3 -10 3 -10 15 0 12 -5 18 -10 15 -6 -3 -10 1 -10 9 0 9 -4
16 -8 16 -4 0 -14 16 -21 35 -7 19 -17 35 -23 35 -5 0 -7 7 -4 16 3 8 2 12 -4
9 -9 -5 -12 1 -9 21 0 3 -8 13 -19 22 -10 9 -17 22 -15 27 2 6 -6 21 -17 33
-12 12 -18 26 -15 32 3 5 0 12 -7 17 -7 4 -19 19 -26 32 -9 15 -9 21 -2 16 7
-4 7 1 -2 14 -7 12 -16 21 -20 21 -5 0 -8 9 -8 20 0 11 -4 20 -10 20 -5 0 -10
9 -10 20 0 11 -6 20 -12 20 -9 0 -8 4 2 10 10 6 11 10 3 10 -7 0 -13 7 -13 15
0 8 -4 15 -10 15 -5 0 -10 11 -10 25 0 14 -5 25 -11 25 -5 0 -7 5 -4 10 3 6 1
10 -5 10 -6 0 -8 4 -5 10 3 5 -1 20 -10 33 -8 13 -12 27 -8 30 3 4 1 7 -5 7
-7 0 -12 8 -12 18 0 10 -6 24 -12 31 -11 11 -10 12 2 6 10 -6 8 -1 -4 13 -11
12 -16 22 -12 22 3 0 -2 17 -13 39 -11 21 -17 41 -14 45 4 3 1 6 -5 6 -6 0 -9
7 -6 15 4 8 2 15 -3 15 -5 0 -9 8 -9 18 -1 22 -7 45 -14 52 -6 6 -32 99 -33
118 0 6 -5 12 -10 12 -5 0 -3 8 4 17 8 9 9 14 3 10 -17 -10 -34 35 -22 58 8
13 7 16 -1 11 -10 -7 -15 12 -14 52 1 6 -4 12 -9 12 -5 0 -8 8 -6 18 2 9 -3
23 -12 30 -13 10 -12 11 5 5 18 -6 18 -5 7 10 -8 9 -10 22 -6 28 5 8 3 9 -6 4
-10 -6 -12 0 -8 23 3 21 0 33 -10 37 -11 4 -12 8 -2 20 10 12 10 15 0 15 -8 0
-10 3 -7 6 3 4 2 15 -3 25 -7 12 -6 19 3 22 9 4 9 6 0 6 -7 1 -10 8 -6 18 4
11 3 14 -5 9 -9 -5 -9 -1 -2 18 5 14 5 28 1 30 -14 9 -20 56 -7 56 6 0 3 7 -7
14 -14 11 -15 15 -5 19 10 4 10 6 -1 6 -11 1 -11 4 -1 16 9 11 9 15 1 15 -8 0
-9 5 -2 18 7 13 6 23 -1 30 -13 13 -19 52 -8 52 11 0 -1 54 -14 62 -8 5 -7 8
1 8 9 0 10 7 4 23 -6 14 -5 30 1 41 6 11 7 21 1 25 -10 7 -11 22 0 38 4 7 0
16 -10 22 -14 8 -15 10 -3 11 13 0 13 1 0 10 -13 9 -13 10 0 10 13 0 13 1 0
10 -8 5 -19 10 -25 10 -5 0 -5 -4 2 -8z"/>
<path d="M1050 2126 c0 -2 8 -10 18 -17 15 -13 16 -12 3 4 -13 16 -21 21 -21
13z"/>
</g>
</svg>
